# xmcd
#
# Track frame offsets:
#	150
#	21264
#	37689
#	55185
#	75983
#	93108
#	115273
#	135683
#	158201
#	177637
#	201444
#	224352
#	243739
#	264066
#	281840
#
# Disc length: 4016 seconds
#
# Revision: 1
# Processed by: cddbd v1.5.2PL0 Copyright (c) Steve Scherf et al.
# Submitted via: audiograbber 1.83.01
#
DISCID=ce0fae0f
DTITLE=Xta-C - Mr. So Heavy
DYEAR=2003
DGENRE=Gangsta
TTITLE0=Getting Delt Wit Ft. El Goldmouth, Christopher Ryan, Re Laxx 
TTITLE1=Get Paid Ft. Immobiliare 
TTITLE2=J. Dub and X
TTITLE3=Phillip Drummond
TTITLE4=Tha Fedz
TTITLE5=Causin' Havoc Ft. Sutter Cain and Dice 
TTITLE6=Pimp Tight Ft. Tha Killa Unit
TTITLE7=So Heavy
TTITLE8=Play These Hoes Ft. Immobillare 
TTITLE9=Sizzle Ft. Re Laxx
TTITLE10=Playa Made Ft. J Luck, Pradagy, Barbershop B 
TTITLE11=Groupie Hoes Ft. Paul Mussan, Rece Of Immobiliare 
TTITLE12=Ain't Fair (Raw) Ft. Re Laxx
TTITLE13=Gitchy Ft. Re Laxx
TTITLE14=So Heavy (Radio)
EXTD=
EXTT0=
EXTT1=
EXTT2=
EXTT3=
EXTT4=
EXTT5=
EXTT6=
EXTT7=
EXTT8=
EXTT9=
EXTT10=
EXTT11=
EXTT12=
EXTT13=
EXTT14=
PLAYORDER=
